PathFileType	4	(X/Y/Z)	Gait_latera_markers.trc
DataRate	CameraRate	NumFrames	NumMarkers	Units	OrigDataRate	OrigDataStartFrame	OrigNumFrames
100	100	10	38	m	100	13	96
Frame#	Time	RASI			RPSI			LPSI			LASI			RTROCH			RTHI			RTHI2			RTHI3			RTHI4			RKNE			RKNEM			RTIB			RTIB2			RTIB3			RTIB4			RANK			RANKM			RHEE			RTOE			RTOEL			RTOEM			LTROCH			LTHI			LTHI2			LTHI3			LTHI4			LKNE			LKNEM			LTIB			LTIB2			LTIB3			LTIB4			LANK			LANKM			LHEE			LTOE			LTOEL			LTOEM
		X1	Y1	Z1	X2	Y2	Z2	X3	Y3	Z3	X4	Y4	Z4	X5	Y5	Z5	X6	Y6	Z6	X7	Y7	Z7	X8	Y8	Z8	X9	Y9	Z9	X10	Y10	Z10	X11	Y11	Z11	X12	Y12	Z12	X13	Y13	Z13	X14	Y14	Z14	X15	Y15	Z15	X16	Y16	Z16	X17	Y17	Z17	X18	Y18	Z18	X19	Y19	Z19	X20	Y20	Z20	X21	Y21	Z21	X22	Y22	Z22	X23	Y23	Z23	X24	Y24	Z24	X25	Y25	Z25	X26	Y26	Z26	X27	Y27	Z27	X28	Y28	Z28	X29	Y29	Z29	X30	Y30	Z30	X31	Y31	Z31	X32	Y32	Z32	X33	Y33	Z33	X34	Y34	Z34	X35	Y35	Z35	X36	Y36	Z36	X37	Y37	Z37	X38	Y38	Z38

13	0.120000	-0.341079	0.940965	-0.808563	-0.257117	0.980732	-0.987969	-0.161357	0.966164	-0.972575	-0.116651	0.947208	-0.780378	-0.391971	0.871408	-0.898892	-0.393671	0.764296	-0.937779	-0.392458	0.756349	-0.874437	-0.379158	0.674063	-0.878335	-0.380686	0.676644	-0.940724	-0.344885	0.528787	-0.972910	-0.231094	0.532631	-0.949944	-0.352509	0.409306	-1.049241	-0.334074	0.389312	-0.991678	-0.327692	0.307651	-1.022213	-0.346686	0.332776	-1.079251	-0.281989	0.126685	-1.153539	-0.219486	0.123001	-1.106519	-0.229171	0.076383	-1.209690	-0.318617	0.052723	-0.992578	-0.359047	0.041947	-1.061495	-0.258924	0.032059	-0.996182	-0.052476	0.873363	-0.847232	-0.048024	0.677768	-0.760625	-0.069582	0.698666	-0.705088	-0.082868	0.619919	-0.682527	-0.062152	0.594080	-0.737949	-0.086873	0.523849	-0.694915	-0.192294	0.545169	-0.686053	-0.078967	0.302885	-0.649997	-0.081175	0.336086	-0.593762	-0.091372	0.255774	-0.560272	-0.090237	0.228530	-0.617416	-0.109690	0.107411	-0.543914	-0.170687	0.156546	-0.509892	-0.172747	0.052544	-0.559252	-0.083256	0.156764	-0.367721	-0.047267	0.107754	-0.407698	-0.138205	0.150434	-0.368459
14	0.130000	-0.341182	0.939930	-0.796687	-0.256274	0.979394	-0.975615	-0.160889	0.965074	-0.960002	-0.116787	0.946314	-0.767434	-0.391865	0.871435	-0.887374	-0.393403	0.763727	-0.926941	-0.392710	0.755625	-0.863581	-0.379620	0.673344	-0.867881	-0.380764	0.676082	-0.930153	-0.344501	0.527692	-0.962040	-0.231747	0.532056	-0.939328	-0.352970	0.409993	-1.041040	-0.335081	0.389222	-0.984030	-0.328397	0.307740	-1.016231	-0.347456	0.334235	-1.072692	-0.283113	0.129872	-1.151684	-0.220399	0.125537	-1.104523	-0.230024	0.080459	-1.208435	-0.318980	0.052319	-0.992296	-0.359342	0.042021	-1.061183	-0.258417	0.032087	-0.996233	-0.052372	0.872171	-0.834339	-0.048102	0.677841	-0.745834	-0.069808	0.699003	-0.690473	-0.083557	0.620514	-0.667329	-0.062526	0.594087	-0.722322	-0.086963	0.523706	-0.680160	-0.191712	0.545674	-0.670009	-0.079492	0.302449	-0.638277	-0.083298	0.333793	-0.581148	-0.093814	0.252597	-0.549415	-0.091211	0.226763	-0.607424	-0.111936	0.103804	-0.537708	-0.173248	0.152032	-0.502863	-0.174931	0.048945	-0.554415	-0.085493	0.149367	-0.360885	-0.049278	0.101397	-0.402221	-0.140213	0.142782	-0.361416
15	0.140000	-0.341282	0.939179	-0.784393	-0.255356	0.978307	-0.962687	-0.160404	0.963807	-0.946831	-0.116993	0.945725	-0.754327	-0.391720	0.870998	-0.875598	-0.393248	0.763210	-0.915780	-0.393013	0.754985	-0.852492	-0.379982	0.672680	-0.856896	-0.380896	0.675680	-0.919209	-0.344788	0.527177	-0.951284	-0.233549	0.530599	-0.927699	-0.353875	0.411102	-1.032426	-0.336188	0.389190	-0.975948	-0.329348	0.308155	-1.009686	-0.348253	0.335953	-1.065646	-0.284192	0.133380	-1.149338	-0.221442	0.128150	-1.102026	-0.231048	0.085266	-1.206887	-0.319024	0.051686	-0.991795	-0.359608	0.042203	-1.060846	-0.258601	0.032383	-0.995643	-0.052290	0.871188	-0.821044	-0.047801	0.677277	-0.731456	-0.069278	0.699030	-0.676332	-0.083170	0.620593	-0.652542	-0.062725	0.593991	-0.707764	-0.086994	0.523622	-0.665386	-0.191025	0.545477	-0.654619	-0.079641	0.300977	-0.626516	-0.085512	0.330587	-0.568867	-0.096206	0.248742	-0.539651	-0.092187	0.224480	-0.598120	-0.114309	0.100203	-0.533199	-0.176157	0.146987	-0.497392	-0.176895	0.045883	-0.551400	-0.088550	0.140989	-0.355248	-0.051920	0.095247	-0.398219	-0.142915	0.134026	-0.355859
16	0.150000	-0.341258	0.938609	-0.771969	-0.254534	0.977346	-0.949557	-0.159881	0.963060	-0.933819	-0.116766	0.945100	-0.740634	-0.391731	0.869840	-0.863860	-0.393134	0.763137	-0.904318	-0.393449	0.753912	-0.840981	-0.380121	0.671811	-0.845358	-0.381388	0.675549	-0.908144	-0.345559	0.526738	-0.940278	-0.231402	0.531414	-0.916992	-0.354595	0.412075	-1.023270	-0.337288	0.388901	-0.967420	-0.330517	0.308724	-1.002929	-0.348937	0.337785	-1.058047	-0.285315	0.137076	-1.146620	-0.222453	0.131084	-1.099219	-0.231751	0.090545	-1.205018	-0.319003	0.051023	-0.991191	-0.359824	0.042378	-1.060415	-0.259040	0.032334	-0.995405	-0.052116	0.870228	-0.807057	-0.047484	0.676367	-0.717958	-0.068111	0.698288	-0.662502	-0.082413	0.620092	-0.638498	-0.062571	0.593087	-0.693793	-0.087260	0.522793	-0.650468	-0.190528	0.544871	-0.639742	-0.080370	0.299133	-0.615855	-0.087513	0.327249	-0.557627	-0.098587	0.244655	-0.530917	-0.093213	0.222039	-0.589642	-0.116330	0.098107	-0.529607	-0.179172	0.142177	-0.492645	-0.177741	0.044827	-0.549838	-0.092609	0.132998	-0.349459	-0.054640	0.090083	-0.393910	-0.146917	0.124528	-0.350440
17	0.160000	-0.341162	0.938320	-0.759074	-0.253869	0.976660	-0.936342	-0.159125	0.962085	-0.920199	-0.117074	0.944674	-0.727214	-0.391411	0.869328	-0.851476	-0.392491	0.762535	-0.892335	-0.393656	0.754057	-0.829514	-0.380813	0.671330	-0.833708	-0.381518	0.675287	-0.896467	-0.346563	0.526419	-0.928809	-0.233558	0.530210	-0.904026	-0.355012	0.413233	-1.013320	-0.338310	0.388850	-0.958070	-0.331424	0.309398	-0.995365	-0.349532	0.339751	-1.049928	-0.286555	0.141244	-1.143427	-0.223565	0.134286	-1.095889	-0.232715	0.096353	-1.202654	-0.319035	0.050506	-0.990612	-0.359977	0.042724	-1.059755	-0.259239	0.032557	-0.995076	-0.052333	0.869822	-0.793109	-0.047119	0.674941	-0.704951	-0.066587	0.697048	-0.649100	-0.080952	0.618789	-0.625081	-0.062374	0.591842	-0.680828	-0.087697	0.521140	-0.635738	-0.190157	0.543606	-0.625536	-0.080801	0.297229	-0.605671	-0.089663	0.324200	-0.547063	-0.101003	0.240891	-0.522806	-0.093953	0.220620	-0.581475	-0.118612	0.095074	-0.525358	-0.182520	0.137618	-0.488408	-0.179652	0.044907	-0.546836	-0.097038	0.126092	-0.343877	-0.057634	0.085598	-0.389138	-0.150942	0.115582	-0.345025
18	0.170000	-0.340818	0.937861	-0.745967	-0.252975	0.975957	-0.922803	-0.158221	0.961295	-0.906380	-0.116144	0.944239	-0.713065	-0.390899	0.869104	-0.838801	-0.391914	0.762418	-0.880027	-0.393763	0.753801	-0.817391	-0.382208	0.671359	-0.822126	-0.381357	0.674957	-0.884519	-0.347598	0.526043	-0.916618	-0.234476	0.529279	-0.890792	-0.355730	0.414530	-1.002820	-0.339410	0.388673	-0.948193	-0.332674	0.310141	-0.987550	-0.350325	0.341883	-1.041291	-0.287534	0.145840	-1.139716	-0.224763	0.137958	-1.092273	-0.233613	0.102845	-1.199894	-0.319120	0.050051	-0.989929	-0.360263	0.043180	-1.059003	-0.259478	0.032716	-0.994681	-0.052069	0.869313	-0.778774	-0.046826	0.673321	-0.692431	-0.064934	0.695037	-0.635999	-0.079674	0.616946	-0.612492	-0.062426	0.590167	-0.668823	-0.088936	0.519919	-0.622353	-0.190269	0.542170	-0.612236	-0.082223	0.295840	-0.595528	-0.091766	0.321819	-0.536687	-0.103788	0.238216	-0.513799	-0.095763	0.218022	-0.572905	-0.120777	0.093062	-0.519699	-0.185671	0.133984	-0.482740	-0.180222	0.045129	-0.543677	-0.101858	0.119538	-0.337351	-0.062263	0.081852	-0.384163	-0.155586	0.107021	-0.339180
19	0.180000	-0.340441	0.937825	-0.732607	-0.252034	0.975203	-0.909104	-0.157341	0.960762	-0.892694	-0.116267	0.944124	-0.699427	-0.390270	0.868814	-0.825790	-0.391162	0.762352	-0.867299	-0.393321	0.753191	-0.804178	-0.382775	0.671178	-0.809485	-0.381192	0.674668	-0.871636	-0.349415	0.526024	-0.903980	-0.234273	0.528715	-0.876681	-0.356562	0.415681	-0.991245	-0.340706	0.388232	-0.937467	-0.333829	0.310712	-0.979063	-0.351167	0.344018	-1.031614	-0.288819	0.151012	-1.135335	-0.225811	0.141854	-1.087929	-0.234579	0.110198	-1.196517	-0.319305	0.049560	-0.989148	-0.360644	0.043946	-1.058115	-0.259505	0.033014	-0.994440	-0.051072	0.869037	-0.764379	-0.046750	0.671921	-0.680216	-0.063227	0.692876	-0.623217	-0.078633	0.614470	-0.600930	-0.063042	0.588587	-0.658028	-0.090197	0.518859	-0.610004	-0.191195	0.540505	-0.600952	-0.083614	0.295213	-0.584815	-0.094050	0.320272	-0.525889	-0.106287	0.236590	-0.504028	-0.096732	0.217256	-0.563170	-0.121662	0.092326	-0.513032	-0.187980	0.131018	-0.476165	-0.180405	0.046952	-0.540392	-0.107107	0.112441	-0.330729	-0.065950	0.077630	-0.378205	-0.159877	0.098664	-0.333083
20	0.190000	-0.339869	0.937771	-0.719102	-0.250873	0.974642	-0.895226	-0.156226	0.960712	-0.879108	-0.115308	0.944082	-0.685547	-0.389539	0.868708	-0.812542	-0.390345	0.762279	-0.854108	-0.393071	0.753311	-0.790947	-0.383201	0.671084	-0.796103	-0.381334	0.674645	-0.858358	-0.350603	0.525552	-0.889728	-0.238068	0.526241	-0.860260	-0.357925	0.417115	-0.978857	-0.342147	0.387847	-0.925841	-0.335067	0.311470	-0.969642	-0.352386	0.346503	-1.021250	-0.290191	0.156695	-1.130252	-0.226965	0.145872	-1.082742	-0.235389	0.118246	-1.192231	-0.319590	0.049279	-0.987992	-0.360872	0.044950	-1.057105	-0.259705	0.033310	-0.993997	-0.049860	0.869413	-0.750351	-0.047052	0.671281	-0.668753	-0.061735	0.691302	-0.611045	-0.078051	0.612230	-0.589927	-0.063923	0.587507	-0.647980	-0.090842	0.518062	-0.598939	-0.193036	0.539271	-0.591433	-0.083933	0.295040	-0.573386	-0.095993	0.319339	-0.514462	-0.108118	0.235114	-0.493942	-0.096806	0.216466	-0.552700	-0.121530	0.091793	-0.506231	-0.188946	0.128555	-0.469620	-0.179665	0.049169	-0.537359	-0.110835	0.104237	-0.323880	-0.068538	0.071884	-0.372316	-0.163527	0.090346	-0.327693
21	0.200000	-0.339094	0.937656	-0.705513	-0.249900	0.974383	-0.881518	-0.154906	0.960675	-0.865361	-0.115265	0.944492	-0.672323	-0.388583	0.868984	-0.798603	-0.389180	0.762085	-0.840195	-0.392625	0.753408	-0.777213	-0.383404	0.671153	-0.781810	-0.380972	0.674323	-0.843897	-0.351756	0.524738	-0.873924	-0.237999	0.526098	-0.844450	-0.359305	0.418052	-0.965012	-0.343673	0.387604	-0.913040	-0.337168	0.311828	-0.959521	-0.353640	0.348637	-1.009758	-0.291490	0.162962	-1.124221	-0.228334	0.150529	-1.076517	-0.236209	0.127224	-1.186940	-0.319806	0.049244	-0.986865	-0.360907	0.046063	-1.056113	-0.260039	0.033644	-0.993299	-0.049389	0.869660	-0.736473	-0.047238	0.671153	-0.657362	-0.060453	0.690675	-0.598962	-0.077961	0.610727	-0.579417	-0.064712	0.587089	-0.638103	-0.090423	0.517977	-0.588577	-0.194662	0.538860	-0.583089	-0.083152	0.295821	-0.562403	-0.096666	0.318842	-0.503158	-0.108741	0.233993	-0.484638	-0.096017	0.216218	-0.543455	-0.120661	0.091344	-0.500944	-0.188877	0.126902	-0.464203	-0.178663	0.050637	-0.534867	-0.112499	0.096402	-0.318373	-0.070308	0.065572	-0.367888	-0.165152	0.082669	-0.323303
22	0.210000	-0.338401	0.938501	-0.691749	-0.249018	0.974348	-0.867884	-0.154239	0.960851	-0.851977	-0.114597	0.945426	-0.659289	-0.387841	0.868513	-0.784918	-0.388027	0.761883	-0.825643	-0.392229	0.754167	-0.763295	-0.383434	0.671372	-0.766489	-0.380398	0.673929	-0.828571	-0.353311	0.524005	-0.856996	-0.240266	0.524181	-0.826354	-0.360877	0.419257	-0.950098	-0.345519	0.387145	-0.899153	-0.338726	0.312765	-0.947811	-0.355150	0.350973	-0.996822	-0.292542	0.169589	-1.116754	-0.230021	0.155859	-1.069630	-0.236704	0.137338	-1.180282	-0.320172	0.048859	-0.986509	-0.361375	0.048205	-1.055436	-0.260300	0.034038	-0.992580	-0.049738	0.870215	-0.722832	-0.046965	0.671797	-0.645882	-0.061291	0.689853	-0.587437	-0.077621	0.610363	-0.568751	-0.064056	0.587401	-0.627759	-0.088787	0.518788	-0.576917	-0.195359	0.539042	-0.575473	-0.081363	0.296763	-0.552360	-0.096435	0.318709	-0.493286	-0.108705	0.233167	-0.476855	-0.094153	0.216965	-0.535717	-0.120198	0.091049	-0.497507	-0.188205	0.125764	-0.459878	-0.178103	0.051983	-0.533265	-0.111774	0.089735	-0.314830	-0.069654	0.060467	-0.365408	-0.164581	0.076798	-0.320503
